<?xml version="1.0" encoding="UTF-8"?>
<svg id="Capa_1" xmlns="http://www.w3.org/2000/svg" version="1.1" viewBox="0 0 48 48">
  <!-- Generator: Adobe Illustrator 29.5.0, SVG Export Plug-In . SVG Version: 2.1.0 Build 137)  -->
  <defs>
    <style>
      .st0 {
        fill: #153f7c;
      }

      .st1 {
        fill: #fff;
      }
    </style>
  </defs>
  <path class="st0" d="M43.7,11.7L24.8.8c-.5-.3-1.2-.3-1.7,0L4.3,11.7c-.5.3-.8.9-.8,1.5v21.7c0,.6.3,1.2.8,1.5l18.8,10.9c.5.3,1.2.3,1.7,0l6.5-3.7s0,0,0,0c1.5.8,3.1,1.2,4.7,1.2s3.5-.5,4.8-1.6c1.4-1.2,2.1-2.5,2.1-3.9s-.3-1.5-.7-2l1.4-.8c.5-.3.8-.9.8-1.5V13.1c0-.6-.3-1.2-.8-1.5Z"/>
  <g id="Capa_11" data-name="Capa_1">
    <g>
      <path class="st1" d="M22.1,24.9l-2.7,10.8c.6,0,1.2.1,1.6.1.6,0,1.3-.1,2.2-.3l-.2,1c-.9.2-1.6.3-2.1.3s-1.3,0-2.3-.1c-.9,0-1.7-.1-2.3-.1-1.1,0-2.3.2-3.8.5l.3-1.1c1.5-.4,2.5-.8,2.9-1.1.7-.6,1.2-1.6,1.6-3.1l2.8-11.3c.4-1.4.5-2.3.5-2.6s0-.4-.3-.5c-.2-.1-.5-.2-1-.2l.3-1c1.4,0,3-.3,4.9-.7-.2.5-.4,1.3-.6,2.3l-1.5,6c.6.1,1.2.2,1.6.2,1.7,0,3.1-.6,4.3-1.8,1.2-1.2,1.8-2.6,1.8-4.2s-.5-2.3-1.4-3.1-2.3-1.2-3.9-1.2-4.2.5-6.2,1.5c-2,1-3.5,2.3-4.6,3.8-1,1.5-1.5,3.1-1.5,4.8s.5,2.3,1.6,3.2c.5.4.9.8,1,1,.1.2.2.4.2.6s-.1.5-.3.7c-.2.2-.5.3-.8.3-.7,0-1.4-.4-2-1.3-.7-1.1-1.1-2.5-1.1-4.1s.6-4,1.7-5.8,2.9-3.3,5.2-4.5,4.8-1.8,7.4-1.8,4.4.5,5.9,1.4,2.3,2.2,2.3,4-.7,3.2-2.1,4.6c-1.4,1.4-3.4,2.4-5.9,2.8.6,1.2,1,2.1,1.2,2.5.3.7.7,2,1.3,3.7,1.4,4.1,2.8,6.9,4.2,8.6,1.1,1.2,2.3,1.8,3.5,1.8s2.1-.6,2.5-1.8c.2-.7.4-1.2.6-1.4.3-.2.5-.4.9-.4s.6.1.8.3c.2.2.3.5.3.8,0,.8-.5,1.6-1.4,2.4-.9.8-2.1,1.1-3.6,1.1s-2.6-.3-3.8-1c-1.2-.6-2.4-1.7-3.5-3.1-1.1-1.4-2.1-3.2-3-5.2-.4-1-1-2.9-1.8-5.6-.5-1.7-.8-2.6-.9-3h-.5c-.1,0-.3,0-.5,0h0Z"/>
      <polygon class="st1" points="24 45.9 5.1 34.9 5.1 13.1 24 2.1 42.9 13.1 42.9 34.9 40.4 36.5 39.8 35.5 41.7 34.3 41.7 13.8 24 3.5 6.3 13.8 6.3 34.2 24 44.5 26.6 43 27.2 44 24 45.9"/>
    </g>
  </g>
  <path class="st1" d="M22.1,24.9l-2.7,10.8c.6,0,1.2.1,1.6.1.6,0,1.3-.1,2.2-.3l-.2,1c-.9.2-1.6.3-2.1.3s-1.3,0-2.3-.1c-.9,0-1.7-.1-2.3-.1-1.1,0-2.3.2-3.8.5l.3-1.1c1.5-.4,2.5-.8,2.9-1.1.7-.6,1.2-1.6,1.6-3.1l2.8-11.3c.4-1.4.5-2.3.5-2.6s0-.4-.3-.5c-.2-.1-.5-.2-1-.2l.3-1c1.4,0,3-.3,4.9-.7-.2.5-.4,1.3-.6,2.3l-1.5,6c.6.1,1.2.2,1.6.2,1.7,0,3.1-.6,4.3-1.8,1.2-1.2,1.8-2.6,1.8-4.2s-.5-2.3-1.4-3.1-2.3-1.2-3.9-1.2-4.2.5-6.2,1.5c-2,1-3.5,2.3-4.6,3.8-1,1.5-1.5,3.1-1.5,4.8s.5,2.3,1.6,3.2c.5.4.9.8,1,1,.1.2.2.4.2.6s-.1.5-.3.7c-.2.2-.5.3-.8.3-.7,0-1.4-.4-2-1.3-.7-1.1-1.1-2.5-1.1-4.1s.6-4,1.7-5.8,2.9-3.3,5.2-4.5,4.8-1.8,7.4-1.8,4.4.5,5.9,1.4,2.3,2.2,2.3,4-.7,3.2-2.1,4.6c-1.4,1.4-3.4,2.4-5.9,2.8.6,1.2,1,2.1,1.2,2.5.3.7.7,2,1.3,3.7,1.4,4.1,2.8,6.9,4.2,8.6,1.1,1.2,2.3,1.8,3.5,1.8s2.1-.6,2.5-1.8c.2-.7.4-1.2.6-1.4.3-.2.5-.4.9-.4s.6.1.8.3c.2.2.3.5.3.8,0,.8-.5,1.6-1.4,2.4-.9.8-2.1,1.1-3.6,1.1s-2.6-.3-3.8-1c-1.2-.6-2.4-1.7-3.5-3.1-1.1-1.4-2.1-3.2-3-5.2-.4-1-1-2.9-1.8-5.6-.5-1.7-.8-2.6-.9-3h-.5c-.1,0-.3,0-.5,0h0Z"/>
</svg>