<?xml version="1.0" encoding="UTF-8"?>
<svg id="Layer_2" xmlns="http://www.w3.org/2000/svg" version="1.1" viewBox="0 0 200 48.8">
  <!-- Generator: Adobe Illustrator 29.5.0, SVG Export Plug-In . SVG Version: 2.1.0 Build 137)  -->
  <defs>
    <style>
      .st0 {
        fill: #fff;
      }
    </style>
  </defs>
  <g id="Capa_1">
    <g>
      <g>
        <path class="st0" d="M19,25.4l-3,12c.7.1,1.3.2,1.7.2.7,0,1.5-.1,2.5-.3l-.2,1.1c-1,.2-1.8.3-2.4.3s-1.5,0-2.6-.2c-1-.1-1.9-.2-2.5-.2-1.2,0-2.6.2-4.2.5l.3-1.3c1.7-.4,2.7-.8,3.2-1.2.8-.7,1.3-1.8,1.7-3.4l3.2-12.7c.4-1.6.6-2.6.6-2.9s0-.5-.3-.6c-.2-.1-.6-.2-1.1-.2l.3-1.1c1.5,0,3.3-.3,5.5-.8-.2.6-.4,1.4-.7,2.5l-1.7,6.7c.7.1,1.3.2,1.8.2,1.9,0,3.5-.7,4.9-2,1.3-1.3,2-2.9,2-4.7s-.5-2.6-1.6-3.5-2.5-1.4-4.4-1.4-4.7.6-6.9,1.7-4,2.6-5.1,4.3c-1.1,1.7-1.7,3.5-1.7,5.3s.6,2.6,1.7,3.6c.6.5.9.9,1.1,1.1s.2.5.2.7-.1.6-.4.8c-.2.2-.5.4-.9.4-.8,0-1.6-.5-2.2-1.4-.8-1.2-1.2-2.8-1.2-4.6s.6-4.5,1.9-6.5,3.2-3.7,5.8-5,5.3-2,8.2-2,4.9.5,6.6,1.5,2.6,2.5,2.6,4.5-.8,3.6-2.4,5.2-3.8,2.6-6.6,3.1c.7,1.4,1.1,2.3,1.3,2.8.3.8.8,2.2,1.5,4.1,1.5,4.5,3.1,7.7,4.7,9.6,1.2,1.3,2.5,2,3.9,2s2.4-.7,2.8-2c.2-.8.5-1.3.7-1.5.3-.3.6-.4,1-.4s.7.1.9.4.4.6.4.9c0,.9-.5,1.8-1.5,2.7-1,.8-2.3,1.3-4,1.3s-2.9-.3-4.2-1.1c-1.3-.7-2.6-1.9-3.9-3.5-1.3-1.6-2.4-3.5-3.3-5.8-.5-1.1-1.1-3.2-2.1-6.2-.5-1.8-.9-2.9-1-3.3h-.6c-.1,0-.3,0-.6,0h0Z"/>
        <polygon class="st0" points="21.1 48.8 0 36.6 0 12.2 21.1 0 42.2 12.2 42.2 36.6 39.4 38.3 38.7 37.2 40.9 35.8 40.9 13 21.1 1.5 1.3 13 1.3 35.8 21.1 47.2 24 45.6 24.7 46.7 21.1 48.8"/>
      </g>
      <g>
        <path class="st0" d="M58.9,22.1v2.3h-9.6v-12.4h9.3v2.3h-6.5v2.7h5.8v2.2h-5.8v2.9h6.7Z"/>
        <path class="st0" d="M61,11.2h2.8v13.1h-2.8s0-13.1,0-13.1Z"/>
        <path class="st0" d="M79.4,24.4l-2.4-3.5h-2.6v3.5h-2.9v-12.4h5.4c1.1,0,2.1.2,2.9.6s1.4.9,1.9,1.6c.4.7.7,1.5.7,2.4s-.2,1.7-.7,2.4c-.4.7-1.1,1.2-1.9,1.5l2.8,4h-3.1ZM78.7,14.9c-.4-.4-1.1-.6-2-.6h-2.3v4.3h2.3c.9,0,1.5-.2,2-.6s.7-.9.7-1.6-.2-1.2-.7-1.6h0Z"/>
        <path class="st0" d="M93.6,20.4h-7.2c.1.6.4,1.1.9,1.4.5.3,1.1.5,1.8.5s.9,0,1.3-.2c.4-.1.7-.4,1.1-.7l1.5,1.6c-.9,1-2.2,1.5-3.9,1.5s-2-.2-2.8-.6-1.5-1-1.9-1.7c-.4-.7-.7-1.6-.7-2.5s.2-1.8.7-2.5,1.1-1.3,1.8-1.8,1.6-.6,2.6-.6,1.8.2,2.5.6c.8.4,1.3,1,1.8,1.7.4.8.7,1.6.7,2.6s0,.3,0,.7h0ZM87.1,17.3c-.4.4-.7.8-.8,1.5h4.7c0-.6-.3-1.1-.8-1.4-.4-.4-.9-.5-1.6-.5s-1.2.2-1.6.5Z"/>
        <path class="st0" d="M105.2,11.2v13.1h-2.6v-1.1c-.7.8-1.7,1.2-3,1.2s-1.7-.2-2.4-.6-1.3-1-1.7-1.7c-.4-.7-.6-1.6-.6-2.6s.2-1.8.6-2.6,1-1.3,1.7-1.7c.7-.4,1.5-.6,2.4-.6s2.2.4,2.8,1.1v-4.6h2.8,0ZM101.8,21.5c.5-.5.7-1.1.7-1.9s-.2-1.4-.7-1.9-1-.7-1.7-.7-1.3.2-1.8.7-.7,1.1-.7,1.9.2,1.4.7,1.9,1,.7,1.8.7,1.3-.2,1.7-.7Z"/>
        <path class="st0" d="M107.8,13.1c-.3-.3-.5-.7-.5-1.1s.2-.8.5-1.1c.3-.3.7-.4,1.2-.4s.9.1,1.2.4.5.6.5,1.1-.2.8-.5,1.1-.7.4-1.2.4-.9-.1-1.2-.4h0ZM107.7,14.9h2.8v9.5h-2.8v-9.5Z"/>
        <path class="st0" d="M113,11.2h2.8v13.1h-2.8s0-13.1,0-13.1Z"/>
        <path class="st0" d="M123.6,12h2.9v10h6.2v2.3h-9.1v-12.4h0Z"/>
        <path class="st0" d="M141.4,15.8c.8.7,1.2,1.8,1.2,3.2v5.4h-2.6v-1.2c-.5.9-1.5,1.3-2.9,1.3s-1.4-.1-1.9-.4-.9-.6-1.2-1-.4-.9-.4-1.5c0-.9.3-1.6,1-2.1s1.7-.8,3.1-.8h2.2c0-.6-.2-1.1-.6-1.4-.4-.3-.9-.5-1.6-.5s-1,0-1.5.2c-.5.2-.9.4-1.2.6l-1-1.9c.5-.4,1.1-.6,1.9-.9.7-.2,1.5-.3,2.2-.3,1.5,0,2.6.4,3.4,1.1h0ZM139,22.3c.4-.2.6-.5.8-1v-1h-1.9c-1.1,0-1.7.4-1.7,1.1s.1.6.4.8c.3.2.7.3,1.1.3s.9-.1,1.3-.3h0Z"/>
        <path class="st0" d="M154.6,14.9v9.5h-2.6v-1.1c-.4.4-.8.7-1.3,1-.5.2-1.1.3-1.6.3-1.2,0-2.2-.4-3-1.1s-1.1-1.8-1.1-3.2v-5.4h2.8v5c0,1.5.6,2.3,1.9,2.3s1.2-.2,1.6-.6c.4-.4.6-1.1.6-1.9v-4.7h2.8Z"/>
        <path class="st0" d="M161.2,15.1c.6-.2,1.2-.4,1.9-.4v2.6c-.3,0-.5,0-.6,0-.8,0-1.4.2-1.9.7s-.7,1.1-.7,2v4.5h-2.8v-9.5h2.6v1.3c.3-.5.8-.8,1.3-1h0Z"/>
        <path class="st0" d="M173.9,20.4h-7.2c.1.6.4,1.1.9,1.4s1.1.5,1.8.5.9,0,1.3-.2c.4-.1.7-.4,1.1-.7l1.5,1.6c-.9,1-2.2,1.5-3.9,1.5s-2-.2-2.9-.6-1.5-1-1.9-1.7-.7-1.6-.7-2.5.2-1.8.7-2.5,1.1-1.3,1.8-1.8,1.6-.6,2.6-.6,1.8.2,2.5.6c.8.4,1.4,1,1.8,1.7.4.8.6,1.6.6,2.6s0,.3,0,.7h0ZM167.5,17.3c-.4.4-.7.8-.8,1.5h4.7c0-.6-.4-1.1-.8-1.4-.4-.4-.9-.5-1.6-.5s-1.1.2-1.6.5Z"/>
        <path class="st0" d="M175.8,11.2h2.8v13.1h-2.8s0-13.1,0-13.1Z"/>
        <path class="st0" d="M190.4,20.4h-7.2c.1.6.4,1.1.9,1.4s1.1.5,1.8.5.9,0,1.3-.2c.4-.1.7-.4,1.1-.7l1.5,1.6c-.9,1-2.2,1.5-3.9,1.5s-2-.2-2.9-.6-1.5-1-1.9-1.7-.7-1.6-.7-2.5.2-1.8.7-2.5,1.1-1.3,1.8-1.8,1.6-.6,2.6-.6,1.8.2,2.5.6c.8.4,1.4,1,1.8,1.7.4.8.6,1.6.6,2.6s0,.3,0,.7h0ZM184,17.3c-.4.4-.7.8-.8,1.5h4.7c0-.6-.4-1.1-.8-1.4-.4-.4-.9-.5-1.6-.5s-1.1.2-1.6.5Z"/>
        <path class="st0" d="M193.2,24.2c-.8-.2-1.4-.4-1.8-.7l.9-2c.4.3.9.5,1.5.7.6.2,1.2.3,1.8.3,1.2,0,1.8-.3,1.8-.9s-.2-.5-.5-.6c-.3-.1-.8-.2-1.5-.3-.8-.1-1.4-.2-1.9-.4-.5-.1-.9-.4-1.3-.8-.4-.4-.6-.9-.6-1.7s.2-1.1.5-1.6c.4-.5.9-.8,1.5-1.1s1.4-.4,2.4-.4,1.3,0,2,.2c.7.1,1.2.4,1.6.6l-.9,2c-.8-.5-1.8-.7-2.7-.7s-1,0-1.3.2c-.3.2-.4.4-.4.6s.2.5.5.6c.3.1.8.2,1.5.3.8.1,1.4.3,1.9.4s.9.4,1.3.8c.4.4.6.9.6,1.6s-.2,1.1-.5,1.6-.9.8-1.6,1.1c-.7.2-1.5.4-2.4.4s-1.6-.1-2.3-.3h0Z"/>
      </g>
      <g>
        <path class="st0" d="M49.3,29.3h1.4v10h-1.4s0-10,0-10Z"/>
        <path class="st0" d="M60.8,31.8v6.5c0,1.3-.3,2.3-1,2.9-.7.6-1.6,1-2.9,1s-1.4,0-2-.3c-.7-.2-1.2-.5-1.6-.8l.7-1c.3.3.8.5,1.3.7.5.2,1,.3,1.6.3.9,0,1.5-.2,2-.6.4-.4.6-1,.6-1.9v-.6c-.3.4-.7.7-1.2.9-.5.2-1,.3-1.5.3s-1.4-.2-2-.5c-.6-.3-1-.7-1.4-1.3-.3-.6-.5-1.2-.5-1.9s.2-1.3.5-1.9c.3-.6.8-1,1.4-1.3.6-.3,1.2-.5,2-.5s1.1.1,1.6.3c.5.2.9.5,1.2.9v-1.2h1.3ZM58.2,37.5c.4-.2.7-.5.9-.9.2-.4.3-.8.3-1.3,0-.7-.2-1.3-.7-1.8-.5-.5-1.1-.7-1.9-.7s-1.4.2-1.9.7-.7,1-.7,1.8.1.9.3,1.3c.2.4.5.7.9.9.4.2.8.3,1.3.3s.9,0,1.3-.3Z"/>
        <path class="st0" d="M63.4,28.7h1.4v10.6h-1.4s0-10.6,0-10.6Z"/>
        <path class="st0" d="M74.2,36h-6.1c0,.7.4,1.2.9,1.6.5.4,1.1.6,1.9.6s1.6-.3,2.2-.9l.8.9c-.3.4-.8.7-1.3.9-.5.2-1.1.3-1.7.3s-1.5-.2-2.1-.5-1.1-.8-1.4-1.4c-.3-.6-.5-1.2-.5-2s.2-1.4.5-2c.3-.6.8-1,1.3-1.4.6-.3,1.2-.5,1.9-.5s1.4.2,1.9.5c.6.3,1,.8,1.3,1.4.3.6.5,1.3.5,2s0,.2,0,.4ZM68.8,33.4c-.4.4-.7.9-.8,1.6h4.8c0-.6-.3-1.2-.8-1.6-.4-.4-1-.6-1.6-.6s-1.2.2-1.6.6Z"/>
        <path class="st0" d="M76.5,39.1c-.6-.2-1-.4-1.3-.6l.6-1.1c.3.2.7.4,1.2.6s.9.2,1.4.2c1.2,0,1.8-.3,1.8-1s0-.4-.2-.5c-.2-.1-.4-.2-.6-.3-.2,0-.6-.1-1-.2-.6,0-1.1-.2-1.5-.3-.4-.1-.7-.3-1-.6-.3-.3-.4-.7-.4-1.2s.3-1.2.8-1.6,1.3-.6,2.3-.6,1,0,1.5.2c.5.1.9.3,1.2.5l-.6,1.1c-.6-.4-1.3-.6-2.2-.6s-1,0-1.3.3-.5.4-.5.8,0,.4.3.6c.2.1.4.2.6.3.2,0,.6.1,1.1.2.6,0,1.1.2,1.5.3.4.1.7.3,1,.6.3.3.4.7.4,1.2s-.3,1.2-.9,1.6c-.6.4-1.4.6-2.4.6s-1.2,0-1.8-.2h0Z"/>
        <path class="st0" d="M83.2,30c-.2-.2-.3-.4-.3-.6s0-.5.3-.6.4-.3.7-.3.5,0,.7.2c.2.2.3.4.3.6s0,.5-.3.6c-.2.2-.4.3-.7.3s-.5,0-.7-.3ZM83.2,31.8h1.4v7.5h-1.4v-7.5Z"/>
        <path class="st0" d="M92.3,32.5c.6.5.8,1.3.8,2.3v4.6h-1.3v-1c-.2.3-.6.6-1,.8-.4.2-.9.3-1.5.3-.8,0-1.5-.2-2-.6s-.8-.9-.8-1.6.2-1.2.7-1.6c.5-.4,1.2-.6,2.3-.6h2.2v-.3c0-.6-.2-1-.5-1.3-.3-.3-.8-.5-1.5-.5s-.9,0-1.3.2-.8.3-1.1.6l-.6-1c.4-.3.8-.5,1.4-.7.5-.2,1.1-.2,1.7-.2,1,0,1.8.3,2.4.8ZM91,38c.4-.2.7-.6.8-1v-1h-2.1c-1.2,0-1.7.4-1.7,1.2s.2.7.4.9.7.3,1.2.3,1-.1,1.3-.3h0Z"/>
        <path class="st0" d="M107.8,35c.3.4.5,1,.5,1.6s-.3,1.5-1,2c-.7.5-1.6.7-2.8.7h-4.8v-10h4.5c1.1,0,2,.2,2.6.7.6.5.9,1.1.9,1.9s-.1,1-.4,1.3c-.2.4-.6.7-1,.9.6.2,1,.5,1.4.9h0ZM101.1,30.5v3.2h2.9c.7,0,1.3-.1,1.7-.4.4-.3.6-.7.6-1.2s-.2-.9-.6-1.2-1-.4-1.7-.4h-2.9ZM106.2,37.8c.4-.3.6-.7.6-1.2,0-1.1-.8-1.7-2.4-1.7h-3.3v3.3h3.3c.8,0,1.4-.1,1.8-.4Z"/>
        <path class="st0" d="M115.4,32.5c.6.5.8,1.3.8,2.3v4.6h-1.3v-1c-.2.3-.6.6-1,.8-.4.2-.9.3-1.5.3-.8,0-1.5-.2-2-.6s-.8-.9-.8-1.6.2-1.2.7-1.6c.5-.4,1.2-.6,2.3-.6h2.2v-.3c0-.6-.2-1-.5-1.3-.3-.3-.8-.5-1.5-.5s-.9,0-1.3.2-.8.3-1.1.6l-.6-1c.4-.3.8-.5,1.4-.7.5-.2,1.1-.2,1.7-.2,1,0,1.8.3,2.4.8ZM114.1,38c.4-.2.7-.6.8-1v-1h-2.1c-1.2,0-1.7.4-1.7,1.2s.2.7.4.9.7.3,1.2.3,1-.1,1.3-.3h0Z"/>
        <path class="st0" d="M125.8,31.8v7.5h-1.3v-1.1c-.3.4-.6.7-1.1.9-.4.2-.9.3-1.5.3-1,0-1.8-.3-2.4-.8-.6-.6-.9-1.4-.9-2.5v-4.3h1.4v4.2c0,.7.2,1.3.5,1.7s.8.6,1.5.6,1.3-.2,1.7-.7c.4-.4.6-1,.6-1.8v-3.9h1.4,0Z"/>
        <path class="st0" d="M132.7,38.9c-.2.2-.4.3-.7.4-.3,0-.6.1-.9.1-.8,0-1.4-.2-1.8-.6s-.6-1-.6-1.8v-4.1h-1.3v-1.1h1.3v-1.6h1.4v1.6h2.2v1.1h-2.2v4.1c0,.4.1.7.3.9.2.2.5.3.9.3s.8-.1,1.1-.4l.4,1h0Z"/>
        <path class="st0" d="M134.4,30c-.2-.2-.3-.4-.3-.6s0-.5.3-.6.4-.3.7-.3.5,0,.7.2c.2.2.3.4.3.6s0,.5-.3.6c-.2.2-.4.3-.7.3s-.5,0-.7-.3ZM134.3,31.8h1.4v7.5h-1.4v-7.5Z"/>
        <path class="st0" d="M138.7,39.1c-.6-.2-1-.4-1.3-.6l.6-1.1c.3.2.7.4,1.2.6s.9.2,1.4.2c1.2,0,1.8-.3,1.8-1s0-.4-.2-.5-.4-.2-.6-.3c-.2,0-.6-.1-1-.2-.6,0-1.1-.2-1.5-.3-.4-.1-.7-.3-1-.6-.3-.3-.4-.7-.4-1.2s.3-1.2.9-1.6,1.3-.6,2.3-.6,1,0,1.5.2c.5.1.9.3,1.2.5l-.6,1.1c-.6-.4-1.3-.6-2.2-.6s-1,0-1.3.3-.5.4-.5.8,0,.4.3.6c.2.1.4.2.6.3.2,0,.6.1,1.1.2.6,0,1.1.2,1.5.3.4.1.7.3,1,.6.3.3.4.7.4,1.2s-.3,1.2-.9,1.6c-.6.4-1.4.6-2.4.6s-1.2,0-1.8-.2h0Z"/>
        <path class="st0" d="M149.7,38.9c-.2.2-.4.3-.7.4-.3,0-.6.1-.9.1-.8,0-1.4-.2-1.8-.6s-.6-1-.6-1.8v-4.1h-1.3v-1.1h1.3v-1.6h1.4v1.6h2.2v1.1h-2.2v4.1c0,.4.1.7.3.9.2.2.5.3.9.3s.8-.1,1.1-.4l.4,1h0Z"/>
        <path class="st0" d="M156.5,32.5c.6.5.8,1.3.8,2.3v4.6h-1.3v-1c-.2.3-.6.6-1,.8-.4.2-.9.3-1.5.3-.8,0-1.5-.2-2-.6s-.8-.9-.8-1.6.2-1.2.7-1.6c.5-.4,1.2-.6,2.3-.6h2.2v-.3c0-.6-.2-1-.5-1.3-.3-.3-.8-.5-1.5-.5s-.9,0-1.3.2-.8.3-1.1.6l-.6-1c.4-.3.9-.5,1.4-.7.5-.2,1.1-.2,1.7-.2,1,0,1.8.3,2.4.8ZM155.1,38c.4-.2.6-.6.8-1v-1h-2.1c-1.2,0-1.7.4-1.7,1.2s.1.7.4.9c.3.2.7.3,1.2.3s1-.1,1.4-.3h0Z"/>
      </g>
    </g>
  </g>
</svg>