<?xml version="1.0" encoding="UTF-8"?> <svg xmlns="http://www.w3.org/2000/svg" id="Layer_2" data-name="Layer 2" viewBox="0 0 200 48.78"><defs><style> .cls-1 { fill: #1d2949; } </style></defs><g id="Capa_1" data-name="Capa 1"><g><g><path class="cls-1" d="m19.04,25.36l-3.04,12.02c.72.11,1.3.16,1.74.16.66,0,1.48-.11,2.46-.34l-.23,1.11c-1.01.21-1.79.32-2.35.32-.59,0-1.46-.05-2.6-.16-1.01-.11-1.85-.16-2.51-.16-1.21,0-2.6.17-4.19.52l.34-1.27c1.66-.42,2.74-.84,3.24-1.25.75-.65,1.34-1.79,1.74-3.42l3.17-12.66c.39-1.62.59-2.57.59-2.85,0-.27-.09-.48-.28-.61-.19-.14-.56-.2-1.12-.18l.29-1.09c1.52-.01,3.34-.29,5.46-.84-.18.57-.42,1.42-.7,2.54l-1.7,6.68c.72.15,1.34.23,1.84.23,1.89,0,3.5-.66,4.85-1.98,1.34-1.32,2.02-2.89,2.02-4.7,0-1.4-.54-2.56-1.62-3.46s-2.55-1.36-4.4-1.36c-2.37,0-4.68.57-6.94,1.72s-3.96,2.57-5.09,4.27c-1.13,1.7-1.7,3.48-1.7,5.33,0,1.4.58,2.61,1.74,3.62.59.5.95.86,1.09,1.09.14.23.2.47.2.72,0,.32-.12.59-.35.83-.24.23-.52.35-.85.35-.82,0-1.55-.48-2.18-1.43-.82-1.24-1.23-2.76-1.23-4.57,0-2.32.64-4.49,1.92-6.5s3.23-3.67,5.83-4.98c2.6-1.31,5.35-1.97,8.23-1.97,2.69,0,4.9.51,6.63,1.52s2.6,2.51,2.6,4.48c0,1.86-.8,3.59-2.39,5.19-1.59,1.6-3.78,2.63-6.57,3.08.69,1.39,1.14,2.32,1.33,2.81.32.81.8,2.19,1.45,4.12,1.52,4.53,3.1,7.71,4.73,9.56,1.21,1.35,2.51,2.03,3.92,2.03s2.38-.65,2.78-1.96c.24-.83.47-1.34.68-1.53.29-.27.61-.4.97-.4s.67.13.92.39c.25.26.37.57.37.93,0,.94-.51,1.83-1.54,2.67-1.03.85-2.35,1.27-3.96,1.27-1.46,0-2.86-.35-4.2-1.06-1.34-.71-2.63-1.87-3.89-3.48-1.26-1.61-2.36-3.55-3.29-5.81-.47-1.13-1.15-3.21-2.06-6.23-.54-1.84-.88-2.94-1.02-3.31l-.56-.05c-.13,0-.33.02-.58.05Z"></path><polygon class="cls-1" points="21.12 48.78 0 36.59 0 12.2 21.12 0 42.25 12.2 42.25 36.57 39.41 38.34 38.7 37.21 40.91 35.83 40.91 12.97 21.12 1.55 1.34 12.97 1.34 35.81 21.12 47.23 24 45.57 24.67 46.73 21.12 48.78"></polygon></g><g><path class="cls-1" d="m58.91,22.07v2.3h-9.58v-12.38h9.35v2.3h-6.51v2.69h5.75v2.23h-5.75v2.86h6.74Z"></path><path class="cls-1" d="m60.99,11.25h2.76v13.12h-2.76v-13.12Z"></path><path class="cls-1" d="m79.4,24.37l-2.39-3.45h-2.63v3.45h-2.86v-12.38h5.36c1.1,0,2.05.18,2.86.55.81.37,1.43.88,1.87,1.56.44.67.65,1.47.65,2.39s-.22,1.71-.66,2.38c-.44.67-1.07,1.18-1.88,1.53l2.78,3.98h-3.08Zm-.72-9.49c-.45-.37-1.1-.56-1.96-.56h-2.33v4.31h2.33c.86,0,1.51-.19,1.96-.57.45-.38.67-.91.67-1.59s-.22-1.23-.67-1.6Z"></path><path class="cls-1" d="m93.58,20.39h-7.2c.13.59.44,1.06.92,1.4.48.34,1.08.51,1.8.51.5,0,.93-.07,1.32-.22.38-.15.74-.38,1.07-.7l1.47,1.59c-.9,1.03-2.2,1.54-3.93,1.54-1.07,0-2.02-.21-2.85-.63-.83-.42-1.46-1-1.91-1.74-.45-.74-.67-1.59-.67-2.53s.22-1.77.66-2.52c.44-.75,1.05-1.33,1.82-1.75.77-.42,1.64-.63,2.59-.63s1.77.2,2.53.6c.75.4,1.35.98,1.78,1.72.43.75.65,1.62.65,2.61,0,.04-.02.28-.05.74Zm-6.45-3.06c-.42.35-.68.84-.78,1.45h4.69c-.09-.6-.35-1.08-.78-1.44-.42-.36-.94-.54-1.56-.54s-1.15.18-1.57.53Z"></path><path class="cls-1" d="m105.17,11.25v13.12h-2.63v-1.1c-.68.83-1.67,1.24-2.97,1.24-.9,0-1.71-.2-2.43-.6-.72-.4-1.29-.97-1.71-1.72-.41-.74-.62-1.6-.62-2.58s.21-1.84.62-2.58c.41-.74.98-1.31,1.71-1.72.73-.4,1.54-.6,2.43-.6,1.21,0,2.16.38,2.85,1.15v-4.62h2.76Zm-3.4,10.28c.46-.48.69-1.12.69-1.92s-.23-1.44-.69-1.92c-.46-.48-1.04-.72-1.73-.72s-1.29.24-1.75.72c-.46.48-.69,1.12-.69,1.92s.23,1.44.69,1.92c.46.48,1.04.72,1.75.72s1.27-.24,1.73-.72Z"></path><path class="cls-1" d="m107.85,13.08c-.32-.29-.48-.66-.48-1.1s.16-.8.48-1.1c.32-.29.73-.44,1.24-.44s.92.14,1.24.42.48.64.48,1.06c0,.46-.16.84-.48,1.14-.32.3-.73.45-1.24.45s-.92-.15-1.24-.44Zm-.14,1.77h2.76v9.51h-2.76v-9.51Z"></path><path class="cls-1" d="m113.04,11.25h2.76v13.12h-2.76v-13.12Z"></path><path class="cls-1" d="m123.56,11.99h2.86v10.04h6.21v2.33h-9.07v-12.38Z"></path><path class="cls-1" d="m141.38,15.76c.79.7,1.18,1.76,1.18,3.17v5.43h-2.58v-1.18c-.52.88-1.49,1.33-2.9,1.33-.73,0-1.36-.12-1.9-.37-.54-.25-.95-.59-1.23-1.03-.28-.44-.42-.93-.42-1.49,0-.88.33-1.58,1-2.09.67-.51,1.69-.76,3.09-.76h2.19c0-.6-.18-1.06-.55-1.39-.37-.32-.91-.49-1.64-.49-.51,0-1.01.08-1.49.24-.49.16-.9.37-1.25.65l-.99-1.93c.52-.37,1.14-.65,1.87-.85.72-.2,1.47-.3,2.24-.3,1.47,0,2.61.35,3.4,1.05Zm-2.35,6.56c.37-.22.62-.54.78-.96v-.97h-1.89c-1.13,0-1.7.37-1.7,1.11,0,.35.14.63.42.84.28.21.66.31,1.14.31s.89-.11,1.26-.33Z"></path><path class="cls-1" d="m154.64,14.85v9.51h-2.62v-1.13c-.37.41-.8.73-1.31.95-.51.22-1.06.33-1.64.33-1.25,0-2.24-.36-2.97-1.08-.73-.72-1.1-1.79-1.1-3.2v-5.38h2.76v4.97c0,1.53.64,2.3,1.93,2.3.66,0,1.19-.21,1.59-.65.4-.43.6-1.07.6-1.92v-4.7h2.76Z"></path><path class="cls-1" d="m161.18,15.06c.56-.24,1.21-.35,1.94-.35v2.55c-.31-.02-.51-.04-.62-.04-.79,0-1.41.22-1.86.66-.45.44-.67,1.11-.67,1.99v4.49h-2.76v-9.51h2.63v1.26c.33-.46.77-.81,1.34-1.04Z"></path><path class="cls-1" d="m173.94,20.39h-7.2c.13.59.44,1.06.92,1.4.48.34,1.08.51,1.8.51.5,0,.93-.07,1.32-.22.38-.15.74-.38,1.07-.7l1.47,1.59c-.9,1.03-2.2,1.54-3.93,1.54-1.07,0-2.02-.21-2.85-.63-.83-.42-1.46-1-1.91-1.74-.45-.74-.67-1.59-.67-2.53s.22-1.77.66-2.52c.44-.75,1.05-1.33,1.82-1.75.77-.42,1.64-.63,2.59-.63s1.77.2,2.53.6c.75.4,1.35.98,1.78,1.72.43.75.65,1.62.65,2.61,0,.04-.02.28-.05.74Zm-6.45-3.06c-.42.35-.68.84-.78,1.45h4.69c-.09-.6-.35-1.08-.78-1.44-.42-.36-.94-.54-1.56-.54s-1.15.18-1.57.53Z"></path><path class="cls-1" d="m175.83,11.25h2.76v13.12h-2.76v-13.12Z"></path><path class="cls-1" d="m190.42,20.39h-7.2c.13.59.44,1.06.92,1.4.48.34,1.08.51,1.8.51.5,0,.93-.07,1.32-.22.38-.15.74-.38,1.07-.7l1.47,1.59c-.9,1.03-2.2,1.54-3.93,1.54-1.07,0-2.02-.21-2.85-.63-.83-.42-1.46-1-1.91-1.74-.45-.74-.67-1.59-.67-2.53s.22-1.77.66-2.52c.44-.75,1.05-1.33,1.82-1.75.77-.42,1.64-.63,2.59-.63s1.77.2,2.53.6c.75.4,1.35.98,1.78,1.72.43.75.65,1.62.65,2.61,0,.04-.02.28-.05.74Zm-6.45-3.06c-.42.35-.68.84-.78,1.45h4.69c-.09-.6-.35-1.08-.78-1.44-.42-.36-.94-.54-1.56-.54s-1.15.18-1.57.53Z"></path><path class="cls-1" d="m193.19,24.22c-.75-.19-1.36-.44-1.8-.73l.92-1.98c.42.27.94.49,1.54.66.6.17,1.19.26,1.77.26,1.17,0,1.75-.29,1.75-.87,0-.27-.16-.47-.48-.58-.32-.12-.81-.22-1.47-.3-.78-.12-1.42-.25-1.93-.41-.51-.15-.95-.42-1.32-.81-.37-.39-.56-.94-.56-1.66,0-.6.17-1.13.52-1.6.35-.47.85-.83,1.52-1.09.67-.26,1.45-.39,2.36-.39.67,0,1.34.07,2.01.22.67.15,1.22.35,1.65.61l-.92,1.96c-.84-.47-1.75-.71-2.74-.71-.59,0-1.03.08-1.33.25-.29.17-.44.38-.44.64,0,.29.16.5.48.62.32.12.83.23,1.52.34.78.13,1.41.27,1.91.42.5.15.93.42,1.29.8.37.39.55.93.55,1.63,0,.59-.18,1.11-.53,1.57-.35.46-.87.82-1.55,1.07-.68.25-1.48.38-2.41.38-.79,0-1.56-.1-2.32-.29Z"></path></g><g><path class="cls-1" d="m49.35,29.33h1.42v9.97h-1.42v-9.97Z"></path><path class="cls-1" d="m60.78,31.75v6.52c0,1.32-.33,2.29-.98,2.93-.65.63-1.63.95-2.93.95-.71,0-1.39-.1-2.04-.29-.65-.19-1.17-.47-1.57-.83l.65-1.05c.35.3.79.54,1.3.72.52.18,1.05.26,1.6.26.88,0,1.54-.21,1.96-.63.42-.42.63-1.05.63-1.91v-.6c-.32.39-.72.68-1.19.88-.47.19-.98.29-1.53.29-.72,0-1.37-.15-1.96-.46-.58-.31-1.04-.74-1.37-1.3-.33-.56-.5-1.19-.5-1.9s.17-1.35.5-1.9c.33-.56.79-.98,1.37-1.29.58-.3,1.24-.46,1.96-.46.57,0,1.1.1,1.59.31.49.21.89.52,1.2.93v-1.17h1.3Zm-2.6,5.72c.39-.21.7-.5.93-.88.22-.37.33-.8.33-1.27,0-.73-.24-1.32-.73-1.77-.48-.45-1.11-.68-1.86-.68s-1.4.23-1.88.68c-.48.45-.73,1.04-.73,1.77,0,.47.11.9.33,1.27.22.38.53.67.93.88.39.21.84.31,1.35.31s.94-.1,1.33-.31Z"></path><path class="cls-1" d="m63.39,28.74h1.37v10.56h-1.37v-10.56Z"></path><path class="cls-1" d="m74.15,35.98h-6.12c.09.66.38,1.2.88,1.6.5.4,1.12.61,1.86.61.9,0,1.63-.3,2.18-.91l.75.88c-.34.4-.77.7-1.27.91-.51.21-1.07.31-1.7.31-.8,0-1.5-.16-2.12-.49-.62-.33-1.09-.79-1.43-1.37-.34-.59-.51-1.25-.51-1.99s.16-1.39.49-1.98c.33-.59.78-1.05,1.35-1.37.57-.33,1.22-.49,1.94-.49s1.36.16,1.93.49c.56.33,1.01.79,1.32,1.37.32.59.48,1.26.48,2.02,0,.1,0,.24-.03.41Zm-5.35-2.55c-.44.4-.7.92-.78,1.57h4.84c-.08-.64-.33-1.16-.78-1.56-.44-.4-.99-.61-1.64-.61s-1.2.2-1.64.6Z"></path><path class="cls-1" d="m76.46,39.14c-.57-.17-1.02-.38-1.34-.63l.57-1.08c.33.24.74.43,1.21.57.47.14.95.21,1.44.21,1.2,0,1.79-.34,1.79-1.03,0-.23-.08-.41-.24-.54-.16-.13-.36-.23-.61-.29-.24-.06-.59-.13-1.03-.21-.61-.09-1.1-.2-1.49-.33-.38-.12-.71-.33-.99-.63-.28-.29-.41-.71-.41-1.24,0-.68.28-1.23.85-1.64.57-.41,1.33-.62,2.29-.62.5,0,1.01.06,1.51.19.5.12.92.29,1.24.5l-.58,1.08c-.62-.4-1.34-.6-2.18-.6-.58,0-1.02.09-1.32.28-.3.19-.46.44-.46.75,0,.25.09.44.26.58.17.14.38.25.63.31.25.07.61.14,1.06.23.61.1,1.1.22,1.47.33.37.12.7.32.96.61.27.28.4.68.4,1.2,0,.68-.29,1.23-.88,1.63-.58.4-1.38.61-2.38.61-.62,0-1.21-.08-1.78-.25Z"></path><path class="cls-1" d="m83.23,30.05c-.18-.17-.26-.38-.26-.63s.09-.46.26-.63.4-.26.66-.26.49.08.66.25c.18.17.26.37.26.62s-.09.47-.26.65c-.18.18-.4.26-.66.26s-.49-.09-.66-.26Zm-.02,1.71h1.37v7.55h-1.37v-7.55Z"></path><path class="cls-1" d="m92.32,32.45c.56.51.83,1.28.83,2.29v4.56h-1.3v-1c-.23.35-.55.62-.98.8-.42.19-.92.28-1.5.28-.84,0-1.52-.2-2.03-.61-.51-.41-.76-.94-.76-1.61s.24-1.2.73-1.6c.48-.4,1.25-.6,2.31-.6h2.16v-.27c0-.59-.17-1.04-.51-1.35-.34-.31-.84-.47-1.51-.47-.45,0-.88.07-1.31.22-.43.15-.79.34-1.08.59l-.57-1.03c.39-.31.85-.55,1.4-.72.54-.17,1.12-.25,1.72-.25,1.04,0,1.84.26,2.4.77Zm-1.36,5.53c.38-.23.65-.56.83-.99v-1.05h-2.11c-1.16,0-1.74.39-1.74,1.17,0,.38.15.68.44.9.29.22.7.33,1.22.33s.97-.12,1.35-.35Z"></path><path class="cls-1" d="m107.79,35.01c.33.42.5.96.5,1.6,0,.86-.33,1.53-.98,1.99-.65.47-1.6.7-2.84.7h-4.75v-9.97h4.47c1.14,0,2.02.23,2.64.68.62.46.93,1.09.93,1.89,0,.52-.12.97-.36,1.35-.24.38-.57.67-.98.87.58.16,1.03.45,1.37.88Zm-6.65-4.52v3.19h2.92c.73,0,1.29-.14,1.69-.41.39-.27.59-.67.59-1.19s-.2-.92-.59-1.19c-.39-.27-.96-.41-1.69-.41h-2.92Zm5.1,7.26c.41-.27.61-.68.61-1.25,0-1.11-.81-1.67-2.43-1.67h-3.27v3.32h3.27c.81,0,1.41-.13,1.82-.4Z"></path><path class="cls-1" d="m115.44,32.45c.56.51.83,1.28.83,2.29v4.56h-1.3v-1c-.23.35-.55.62-.98.8-.42.19-.92.28-1.5.28-.84,0-1.52-.2-2.03-.61-.51-.41-.76-.94-.76-1.61s.24-1.2.73-1.6c.48-.4,1.25-.6,2.31-.6h2.16v-.27c0-.59-.17-1.04-.51-1.35-.34-.31-.84-.47-1.51-.47-.45,0-.88.07-1.31.22-.43.15-.79.34-1.08.59l-.57-1.03c.39-.31.85-.55,1.4-.72.54-.17,1.12-.25,1.72-.25,1.04,0,1.84.26,2.4.77Zm-1.36,5.53c.38-.23.65-.56.83-.99v-1.05h-2.11c-1.16,0-1.74.39-1.74,1.17,0,.38.15.68.44.9.29.22.7.33,1.22.33s.97-.12,1.35-.35Z"></path><path class="cls-1" d="m125.84,31.75v7.55h-1.3v-1.14c-.28.39-.64.69-1.09.9-.45.21-.94.32-1.47.32-1.01,0-1.8-.28-2.38-.83-.58-.56-.87-1.37-.87-2.46v-4.34h1.37v4.19c0,.73.18,1.28.53,1.66.35.38.85.56,1.51.56.72,0,1.29-.22,1.71-.65.42-.44.63-1.05.63-1.85v-3.9h1.37Z"></path><path class="cls-1" d="m132.69,38.86c-.2.17-.45.3-.74.39-.29.09-.6.14-.91.14-.76,0-1.35-.2-1.77-.61-.42-.41-.63-.99-.63-1.75v-4.14h-1.28v-1.12h1.28v-1.65h1.37v1.65h2.16v1.12h-2.16v4.09c0,.41.1.72.31.94.2.22.5.33.88.33.42,0,.77-.12,1.07-.36l.43.98Z"></path><path class="cls-1" d="m134.36,30.05c-.18-.17-.26-.38-.26-.63s.09-.46.26-.63.4-.26.66-.26.49.08.66.25c.18.17.26.37.26.62s-.09.47-.26.65c-.18.18-.4.26-.66.26s-.49-.09-.66-.26Zm-.02,1.71h1.37v7.55h-1.37v-7.55Z"></path><path class="cls-1" d="m138.69,39.14c-.57-.17-1.02-.38-1.34-.63l.57-1.08c.33.24.74.43,1.21.57.47.14.95.21,1.44.21,1.2,0,1.79-.34,1.79-1.03,0-.23-.08-.41-.24-.54-.16-.13-.36-.23-.61-.29-.24-.06-.59-.13-1.03-.21-.61-.09-1.1-.2-1.49-.33-.38-.12-.71-.33-.99-.63-.28-.29-.41-.71-.41-1.24,0-.68.28-1.23.85-1.64.57-.41,1.33-.62,2.29-.62.5,0,1.01.06,1.51.19.5.12.92.29,1.24.5l-.58,1.08c-.62-.4-1.34-.6-2.18-.6-.58,0-1.02.09-1.32.28-.3.19-.46.44-.46.75,0,.25.09.44.26.58.17.14.38.25.63.31.25.07.61.14,1.06.23.61.1,1.1.22,1.47.33.37.12.7.32.96.61.27.28.4.68.4,1.2,0,.68-.29,1.23-.88,1.63-.58.4-1.38.61-2.38.61-.62,0-1.21-.08-1.78-.25Z"></path><path class="cls-1" d="m149.69,38.86c-.2.17-.45.3-.74.39-.29.09-.6.14-.91.14-.76,0-1.35-.2-1.77-.61-.42-.41-.63-.99-.63-1.75v-4.14h-1.28v-1.12h1.28v-1.65h1.37v1.65h2.16v1.12h-2.16v4.09c0,.41.1.72.31.94.2.22.5.33.88.33.42,0,.77-.12,1.07-.36l.43.98Z"></path><path class="cls-1" d="m156.48,32.45c.56.51.83,1.28.83,2.29v4.56h-1.3v-1c-.23.35-.55.62-.98.8-.42.19-.92.28-1.5.28-.84,0-1.52-.2-2.03-.61-.51-.41-.76-.94-.76-1.61s.24-1.2.73-1.6c.48-.4,1.25-.6,2.31-.6h2.16v-.27c0-.59-.17-1.04-.51-1.35-.34-.31-.84-.47-1.51-.47-.45,0-.88.07-1.31.22-.43.15-.79.34-1.08.59l-.57-1.03c.39-.31.85-.55,1.4-.72.54-.17,1.12-.25,1.72-.25,1.04,0,1.84.26,2.4.77Zm-1.36,5.53c.38-.23.65-.56.83-.99v-1.05h-2.11c-1.16,0-1.74.39-1.74,1.17,0,.38.15.68.44.9.29.22.7.33,1.22.33s.97-.12,1.35-.35Z"></path></g></g></g></svg> 